<?xml version="1.0" standalone="yes"?>
<svg xmlns="http://www.w3.org/2000/svg" width="479" height="479">
<path style="fill:#fefefe; stroke:none;" d="M0 0L0 239L46 239C44.7725 224.94 40.5561 211.107 39.5039 197C38.8826 188.671 42.4823 185.295 36 178C41.0907 178.109 45.4052 181.826 49.9807 181.851C58.6534 181.9 52.389 170.962 50 168C60.2892 168.249 64.9188 175.318 65 185L70 184L66 175C68.062 174.799 69.9846 174.567 72.0039 175.238C92.5713 182.064 66.1062 203.014 65.4738 213C65.1362 218.33 74.3225 233.437 78.0741 237.397C81.3567 240.861 105.695 240.865 108.992 237.397C113.175 232.995 112.025 223.531 114.334 218C121.418 201.036 131.533 183.798 136 166C129.293 167.353 124.417 172.762 122 179L117 174L114 191L113 191C108.489 181.336 103.476 169.885 104 159C91.5053 161.32 79.3768 159.667 67 158L65 171C59.1403 158.691 50.5951 148.601 41 139C54.3397 142.75 67.2883 144.082 81 143L73 150L73 151C83.4833 153.496 94.6236 151.012 105 149L105 148C100.136 145.841 97.6031 143.399 97 138L63 139L63 138L88 126.721L113.791 120.852L126 112.928L153.91 114.226L163.004 106.518L183 93L183 104L197 97L192 114L199 114L185 123L189 129L183 129L204 150L188 147L189 156C197.918 157.337 203.825 162.177 208 170L188 167C186.428 179.506 199.814 182.101 205 193L183 188L183 196C190.895 197.876 196.335 202.383 202 208L182 208C182.841 212.065 183.563 217.766 187.225 220.357C192.64 224.189 213.214 217.774 217.815 213.697C232.624 200.574 223.517 174.536 236.329 159C259.992 130.305 301.251 118.307 331 97C324.387 113.123 323.32 132.768 347 127.101C368.667 121.915 391.356 111.334 411 101C408.062 103.559 404.977 105.926 402 108.439C390.615 118.049 364.463 146.075 390 155C373.396 162.767 345.313 175.747 355.338 199C357.247 203.428 360.028 207.242 363 211C351.874 211.031 336.505 212.949 329 222C354.924 222.071 378.085 236.659 404 227L404 226C384.931 229.538 359.985 209.671 377.329 191.184C390.772 176.855 408.755 181.566 425 186L431 168L405 177C421.38 161.913 439.216 142.384 447 121L448 121C448.016 145.242 454.443 167.062 461 190L442 172L436.843 197L437.7 217L428 239L479 239L479 0L0 0z"/>
<path style="fill:#625f60; stroke:none;" d="M182 93L183 94L182 93z"/>
<path style="fill:#190c0d; stroke:none;" d="M64 139L97 138C97.4012 143.317 99.6492 146.171 105 147C97.8566 154.504 81.5458 152 72 152L80 143C67.3746 146.006 53.2195 142.442 41 139L65 170L67 157C78.9344 161.477 91.6165 159.977 104 159C102.758 166.636 107.998 182.117 112 189L113 189L117 173L122 179C125.055 172.579 129.579 168.055 136 165C133.62 177.487 126.532 190.722 120.82 202C114.654 214.174 110.242 229.532 108.3 243C107.715 247.059 110.178 257.289 107.307 260.218C102.404 265.22 94.5886 257.559 90.9761 255.03C80.9604 248.018 77.9356 236.16 72.1273 226C69.9506 222.193 65.3622 217.659 65.6181 213C66.2165 202.101 79.5422 196.018 78.9522 184C78.5694 176.203 72.5979 175.055 66 175L66 176C70.2777 179.425 71.4326 183.947 65 185C64.9143 174.785 60.7125 168.491 50 168C54.4759 175.023 54.3964 176.779 51 184L49 184C46.3747 178.997 42.2007 179.015 37 179L37 180C43.5713 185.78 38.8512 189.97 39.4799 197C40.7252 210.923 43.1053 225.542 47 239C32.9645 245.859 41.4812 262.769 31 271C45.8856 279.917 53.5315 256.911 54 246L55 246C60.4696 262.168 70.0567 275.986 80.9198 289C87.1738 296.492 100.111 304.922 101.775 315C102.605 320.031 100.335 324.32 99 329C109.279 325.947 113.652 316.999 115 307L133 305C123.511 318.94 125.925 336.944 110 347.293C99.1556 354.341 88.991 339.562 79 337.39C73.1227 336.113 65.7382 337.19 64.2785 344.013C63.7975 346.262 64.0018 348.715 64 351L65 351L74 346L74 351C63.8394 351.893 59.0288 356.976 59 367C65.1735 363.211 67.3393 362.025 74 365L70 379C83.6991 373.018 99.8651 372.608 115 369.945C120.168 369.036 125.759 364.641 131 365.089C135.794 365.498 141.183 369.504 146 370.846C153.894 373.045 160.307 368.465 166 376L167 376C171.051 358.935 150.747 355.547 138 355L166 314L168 314L176 336L181 313C199.161 312.95 215.192 302.341 232 297C226.769 314.697 247.898 326.958 263 327L262 332C252.726 333.425 247.479 344.04 238 344.775C228.126 345.54 200.776 320.142 195.434 339.015C194.72 341.536 195.002 344.408 195 347L196 347C199.122 342.85 203.876 340.178 205 347C194.601 347.223 189.221 352.642 189 363C195.946 358.468 197.589 357.532 205 361C201.396 365.468 199.761 369.285 201 375L219 371.481L246 366.674L261.83 361.938L278 369.048L297 374C302.51 355.315 279.389 359.501 270 352C279.652 348.487 291.096 342.259 299 335.674C303.37 332.034 308.016 323.843 314.015 323.188C320.738 322.454 326.695 327.729 332 331C330.062 318.073 320.513 311.617 309 307.319C303.75 305.359 293.865 303.489 291.272 297.895C288.998 292.988 295.418 281.585 301.015 281.813C307.809 282.09 312.422 289.751 319 291.316C335.662 295.282 354.829 295.6 372 296C373.062 299.715 375.894 301.669 377.441 305.09C382.225 315.661 384.474 340.441 371 345.243C361.001 348.807 350.884 335.444 342 332.94C336.487 331.386 329.202 332.769 327.434 339.015C326.72 341.536 327.002 344.408 327 347L328 347C331.239 343.02 335.86 340.082 337 347C326.601 347.223 321.221 352.642 321 363C327.946 358.468 329.589 357.532 337 361L333 376L334 376C340.208 367.778 345.145 373.442 353 370.954C362.159 368.052 371.01 368.539 380 366.239C384.219 365.16 389.431 361.412 393.83 361.938C399.42 362.606 405.294 367.886 411 369.363C414.852 370.359 418.26 368.2 421.985 368.862C425.208 369.435 427.328 372.391 430 374C429.997 369.438 430.354 364.817 426.772 361.39C420.223 355.127 406.524 357.882 403.514 347.996C400.938 339.535 405.57 330.177 407.192 322C408.993 312.924 408.15 303.096 407 294L430 303C422.563 277.234 392.96 274.868 375 260C399.833 260 425.781 249.937 435.536 225C439.321 215.326 435.939 207.594 436.638 198C437.301 188.903 441.6 180.282 442 171L461 190C454.376 166.828 448 145.5 448 121L447 121C438.587 141.1 422.29 162.826 405 176L405 177L432 167L425 187C411.568 179.363 391.269 178.714 379.04 189.329C366.137 200.529 372.466 220.112 388 224.945C393.409 226.628 399.405 226 405 226L405 227C377.165 234.595 355.567 222.076 328 222L328 221C339.99 215.402 349.452 211.001 363 211C359.601 205.839 355.513 201.076 353.789 195C347.617 173.25 375.59 164.021 389 155C362.097 139.013 398.335 115.945 409 102C388.504 110.533 367.932 122.831 346 127.482C333.284 130.179 322.913 123.737 326.239 110C327.327 105.51 329.335 101.294 331 97C311.531 109.014 291.901 120.399 272 131.719C258.441 139.432 243.248 147.56 234.548 161C225.444 175.063 230.298 191.751 223.004 206C218.378 215.036 199.663 224.759 189.094 221.307C185.328 220.077 180.096 211.22 184.358 208.179C188.4 205.295 196.522 207.169 201 208C197.105 200.652 189.393 197.868 182 195L183 188L205 193C201.348 184.684 194.771 178.533 186 176C189.812 163.609 197.255 167.537 208 170C203.842 160.547 195.416 161.212 189.859 154.49C181.86 144.813 199.028 148.001 203 150C200.845 139.319 188.195 136.94 182 129L188 129L184 125L184 123L198 114L191 114L197 98L182 105L183 94C176.235 96.8449 168.676 101.643 163 106.329C159.914 108.876 157.055 113.113 153 114.11C146.309 115.756 137.981 111.819 131 112.465C122.199 113.278 119.432 119.065 111.985 121.442C96.6763 126.328 75.3144 125.704 64 139z"/>
<path style="fill:#625f60; stroke:none;" d="M178 96L179 97L178 96M331 96L332 97L331 96M196 97L197 98L196 97M175 98L176 99L175 98M194 98L195 99L194 98M328 98L329 99L328 98M330 98L331 99L330 98M173 99L174 100L173 99z"/>
<path style="fill:#d10e20; stroke:none;" d="M74 135L74 136L104 133C90.1368 155.043 124.309 136.79 131 138.448C138.837 140.391 141.099 149.304 143 156L106 162L110 180L120 167L121 174C127.816 167.7 132.948 161.348 143 163L143 164L138 164C140.013 169.314 144.638 170.722 150 171L150 172C146.509 171.928 140.403 169.69 137.419 171.777C128.164 178.252 141.094 185.48 147 186L147 187L132 183C127.753 191.312 125.597 201.321 138 202L138 203L125 199C119.596 209.325 118.946 217.699 133 218L133 219L118 215C113.457 228.967 113.213 236.277 130 237L130 238L113 235L111 258L130 258L130 259L111 260C111.042 275.064 117.882 279 132 279L132 280L119 281C119.88 289.595 125.399 297.057 133 301L126 291L135 296L131 291L135 293L134 288L145 270C141.718 278.524 141.818 283.95 151 288L151 289L142 285L141 285C136.888 291.23 137.368 296.706 145 299L145 300L136 298C135.496 304.097 136.33 307.962 142 311L142 312L134 308C131.085 313.954 129.596 320.398 137 323L137 324C128.594 321.804 123.394 326.975 129 335L125 334C119.31 345.957 107.402 354.837 94 354.996C83.8474 355.117 67.5144 349.526 62 361L72 356L73 356C72.61 361.203 75.8944 365.696 81 362L94 362L94 363C86.135 364.157 75.8607 365.679 73 374L83 370C86.3294 373.384 89.6485 373.26 92 369C95.7421 371.361 97.9379 369.534 100 366C104.277 368.816 106.871 365.971 109 362L110 362L108 368L136 361C136.206 363.243 137.068 365.228 139 363L140 363C140.317 365.936 143.41 369.864 144 365L145 365C148.185 370.917 153.585 370.262 157 365L165 370C162.817 359.684 140.624 354.15 132 358L149.573 335L169 307L176 328L177 328L181 274L177 276L176 272C172.226 273.908 171.32 275.838 172 280L177 276L174 288L180 284L168 299L164 284C159.303 286.371 158.839 289.398 161 294L165 291C162.218 295.482 161.442 297.895 163 303L168 299L156 312L154 305L153 305C150.074 315.156 143.82 325.979 137 334C144.449 316.714 156.189 300.034 159 281L160 281L160 284L161 284L161 271L162 271L163 277L164 277L162 264L140 266C145.651 255.912 141.011 241.4 142.169 230C143.803 213.915 150.19 199.357 154.573 184C156.369 177.706 161.098 165.914 154 162L149 166L153 158L160 163L158 155L167 157L164 150L170 150L166 142L171 142L166 134L174 144L171 144L173 154L169 153L170 160L162 159L160 173L165 167L170 174L172 170L173 170C169.887 177.127 164.139 181.889 167 190L169 190L172 184L173 184C170.131 191.376 162.171 197.845 166 206L168 206L170 201L171 201C169.317 206.173 167.016 208.863 170 214L171 214L174 208L175 208L173 222L178 216L179 216L174 227L185 223L179 204L194 204L194 203L180 198L181 182L182 182L183 186L199 188L185.067 176.582L185 162L186 162L187 165L202 166C198.903 160.358 192.097 158.532 186 158L185 142L197 144L197 143C190.45 139.55 182.549 136.43 180 129L165 130L165 129L182 127L182 126L177 125L191 117C184.394 112.571 172.972 120.514 167 124L167 125L172 125L172 126L160 127L160 126L176 117L176 116L171 116L171 115L184 110L184 111L180 113L180 114C188.512 113.97 192.026 110.234 194 102L163 115L163 114C171.434 111.382 178.421 107.783 181 99L163.015 109.326L153.961 116.958L128 115.185L114.942 123.581L74 135z"/>
<path style="fill:#625f60; stroke:none;" d="M196 99L196 103L197 103L196 99M327 99L328 100L327 99M329 100L330 101L329 100M170 101L171 102L170 101M324 101L325 102L324 101M409 101L409 103L411 101L409 101M168 102L169 103L168 102M182.333 103.667L182.667 104.333L182.333 103.667M321 103L322 104L321 103M408 103L409 104L408 103M165 104L166 105L165 104M318 105L319 106L318 105z"/>
<path style="fill:#d10e20; stroke:none;" d="M222 213C234.871 203.715 236.96 179.829 243.185 166C249.01 153.062 264.515 142.836 277 137L277 138C261.525 145.321 247.411 157.136 243 174C270.306 156.995 303.698 137.559 336 132L336 131C322.684 127.101 321.638 116.962 325 105C315.227 108.699 306.184 115.65 297 120.694C276.744 131.82 247.667 143.12 235.68 164C226.939 179.225 230.239 197.337 222 213z"/>
<path style="fill:#625f60; stroke:none;" d="M327 105L328 106L327 105M162 106L163 107L162 106M195 106L196 107L195 106M316 106L317 107L316 106M399 106L400 107L399 106M404 106L405 107L404 106M161 107L162 108L161 107z"/>
<path style="fill:#190c0d; stroke:none;" d="M187 107L184 109L184 110L187 107z"/>
<path style="fill:#625f60; stroke:none;" d="M397 107L398 108L397 107M403 107L404 108L403 107M160 108L161 109L160 108M194 108L195 109L194 108M313 108L314 109L313 108M326.333 108.667L326.667 109.333L326.333 108.667M395 108L396 109L395 108M159 109L160 110L159 109M311 109L312 110L311 109M393 109L394 110L393 109M158 110L159 111L158 110M193 110L194 111L193 110M390 110L391 111L390 110M157 111L158 112L157 111M308 111L309 112L308 111M388 111L389 112L388 111M127 112L127 113L131 113L127 112M135 112L135 113L140 113L135 112M306 112L307 113L306 112M386 112L387 113L386 112z"/>
<path style="fill:#d10e20; stroke:none;" d="M393 112C349.618 135.104 297.879 141.069 256 167.695C248.645 172.371 241.638 177.895 237.901 186C233.168 196.265 233.441 208.273 222.999 215.031C212.248 221.988 197.104 222.439 185 225.91C166.698 231.157 149.514 245.254 144 264L164 259L166 276L183 264L183 290L184 290C190.306 279.31 198.022 267.146 209 280L210 280C221.663 268.435 234.309 263.325 246 278L247 278C258.067 260.357 266.591 261.665 284 268C287.459 248.607 306.09 245.915 322 249C314.32 224.782 333.562 209.194 357 209C354.931 202.462 351.031 197.439 350.866 190.285C350.485 173.815 368.522 161.641 382 156C380.213 151.964 376.821 148.51 376.228 144C374.407 130.148 390.277 123.417 393 112z"/>
<path style="fill:#625f60; stroke:none;" d="M123 113L124 114L123 113M145.667 113.333L146.333 113.667L145.667 113.333M191 113L192 114L191 113M304 113L305 114L304 113M325 113L325 120L326 120L325 113M383 113L384 114L383 113M151 114L152 115L151 114M198 114L199 115L198 114M381 114L382 115L381 114M119 115L120 116L119 115z"/>
<path style="fill:#190c0d; stroke:none;" d="M157 120L163 116L157 120z"/>
<path style="fill:#625f60; stroke:none;" d="M197 115L198 116L197 115M301 115L302 116L301 115M378 115L379 116L378 115M196 116L197 117L196 116M299 116L300 117L299 116M376 116L377 117L376 116M117 117L118 118L117 117M297 117L298 118L297 117M373 117L374 118L373 117M193 118L194 119L193 118M371 118L372 119L371 118M116 119L117 120L116 119M368 119L369 120L368 119M190 120L191 121L190 120M292 120L293 121L292 120M365 120L366 121L365 120M111.667 121.333L112.333 121.667L111.667 121.333M188 121L189 122L188 121M290 121L291 122L290 121z"/>
<path style="fill:#190c0d; stroke:none;" d="M303 121L304 122L303 121z"/>
<path style="fill:#625f60; stroke:none;" d="M363 121L364 122L363 121M389 121L390 122L389 121M105.667 122.333L106.333 122.667L105.667 122.333M186 122L187 123L186 122M288 122L289 123L288 122z"/>
<path style="fill:#190c0d; stroke:none;" d="M301 122L298 124L298 125L302 123L301 122z"/>
<path style="fill:#625f60; stroke:none;" d="M326 122L327 123L326 122M360 122L361 123L360 122M388 122L389 123L388 122M100.667 123.333L101.333 123.667L100.667 123.333z"/>
<path style="fill:#190c0d; stroke:none;" d="M117 125L117 126L121 125C127.418 139.46 142.097 129.064 153 126C142.252 123.376 127.701 121.608 117 125z"/>
<path style="fill:#625f60; stroke:none;" d="M184.333 123.667L184.667 124.333L184.333 123.667M357 123L358 124L357 123M96 124L97 125L96 124M355 124L356 125L355 124M445 124L446 125L445 124M92 125L93 126L92 125M123 125L124 126L123 125z"/>
<path style="fill:#fefefe; stroke:none;" d="M124 125C126.197 132.399 134.518 132.381 139 127C134.038 127.48 130.7 129.07 127 125L124 125z"/>
<path style="fill:#625f60; stroke:none;" d="M283 125L284 126L283 125z"/>
<path style="fill:#190c0d; stroke:none;" d="M296 125L277 136L277 137L297 126L296 125z"/>
<path style="fill:#625f60; stroke:none;" d="M352 125L353 126L352 125M88.6667 126.333L89.3333 126.667L88.6667 126.333M127 126L128 127L127 126M281 126L282 127L281 126M330 126L331 127L330 126M349 126L350 127L349 126M385 126L386 127L385 126M444 126L445 127L444 126M85 127L86 128L85 127z"/>
<path style="fill:#190c0d; stroke:none;" d="M107 128L109 133L110 133L110 127L107 128z"/>
<path style="fill:#625f60; stroke:none;" d="M128 127L129 128L128 127M139 127L140 128L139 127z"/>
<path style="fill:#190c0d; stroke:none;" d="M159 127L160 128L159 127z"/>
<path style="fill:#625f60; stroke:none;" d="M279 127L280 128L279 127M332 127L333 128L332 127M345.667 127.333L346.333 127.667L345.667 127.333M82 128L83 129L82 128M130 128L130 129L133 129L130 128M138 128L139 129L138 128M188 128L189 129L188 128M443 128L444 129L443 128M80 129L81 130L80 129M137 129L138 130L137 129M182 129L183 130L182 129M383 129L384 130L383 129M77 130L78 131L77 130M127 130L128 131L127 130M274 130L275 131L274 130z"/>
<path style="fill:#d10e20; stroke:none;" d="M445 130L415 172C424.532 168.775 434.057 164.894 436 154L437 154C435.429 165.668 421.385 188.624 435 195L442 154L443 154C443 165.548 444.975 173.879 455 181L445 130z"/>
<path style="fill:#625f60; stroke:none;" d="M448 130L448 134L449 134L448 130M75 131L76 132L75 131M130 131L130 132L133 132L130 131M272 131L273 132L272 131M441 131L442 132L441 131M381 132L382 133L381 132z"/>
<path style="fill:#190c0d; stroke:none;" d="M168 133L169 134L168 133z"/>
<path style="fill:#625f60; stroke:none;" d="M440 133L441 134L440 133M69 134L70 135L69 134M186 134L187 135L186 134M267 134L268 135L267 134z"/>
<path style="fill:#190c0d; stroke:none;" d="M348.667 134.333L349.333 134.667L348.667 134.333z"/>
<path style="fill:#625f60; stroke:none;" d="M380 134L381 135L380 134M67 135L68 136L67 135M188 135L189 136L188 135M265 135L266 136L265 135z"/>
<path style="fill:#190c0d; stroke:none;" d="M345.667 135.333L346.333 135.667L345.667 135.333z"/>
<path style="fill:#625f60; stroke:none;" d="M190 136L191 137L190 136z"/>
<path style="fill:#190c0d; stroke:none;" d="M254 179L369 157L369 156C334.347 156.715 295.283 165.625 262 175L262 174L344 137C337.261 135.585 326.387 141.387 320 143.808C299.14 151.715 267.592 160.105 254 179z"/>
<path style="fill:#625f60; stroke:none;" d="M438 136L439 137L438 136M262 137L263 138L262 137M379 137L380 138L379 137M63 138L64 139L63 138M68 138L68 139L72 139L68 138M193 138L194 139L193 138M260 138L261 139L260 138M42 139L43 140L42 139M195 139L196 140L195 139M436 139L437 140L436 139M46 140L47 141L46 140M257 140L258 141L257 140M50.6667 141.333L51.3333 141.667L50.6667 141.333z"/>
<path style="fill:#fefefe; stroke:none;" d="M125 141L127 143L127 141L125 141z"/>
<path style="fill:#625f60; stroke:none;" d="M130.333 141.667L130.667 142.333L130.333 141.667z"/>
<path style="fill:#fefefe; stroke:none;" d="M131.333 141.667L131.667 142.333L131.333 141.667z"/>
<path style="fill:#190c0d; stroke:none;" d="M184 141L185 142L184 141z"/>
<path style="fill:#625f60; stroke:none;" d="M378 141L378 145L379 145L378 141M449 141L449 144L450 144L449 141M56.6667 142.333L57.3333 142.667L56.6667 142.333M120 143L120 144L123 145L123 142L120 143M125 142L126 143L125 142M199 142L200 143L199 142M254 142L255 143L254 142M434 142L435 143L434 142M62 143L62 144L66 144L62 143M76 143L76 144L79 144L76 143M80 143L81 144L80 143z"/>
<path style="fill:#fefefe; stroke:none;" d="M121 143L122 144L121 143z"/>
<path style="fill:#d10e20; stroke:none;" d="M128 143L130 146L124 144L125 148L120 146L121 150L116 148L116 152L111 150L110 154C101.734 150.52 91.7195 154.199 83 154.816C77.3672 155.214 71.6073 153.443 66 153L66 154C76.7775 158.637 87.6756 157.555 99 157C103.482 156.78 109.401 157.013 112 153C114.499 154.585 115.396 154.514 117 152L121 154L123 149C126.521 155.256 132.742 153.004 139 153L139 151L132 151L132 150L138 149L138 148L131 148L131 147L137 146L137 145L128 143z"/>
<path style="fill:#625f60; stroke:none;" d="M200 143L201 144L200 143z"/>
<path style="fill:#d10e20; stroke:none;" d="M50 144L65 163L61 150L74 147L50 144z"/>
<path style="fill:#625f60; stroke:none;" d="M98 144L99 145L98 144M117 144L118 145L117 144z"/>
<path style="fill:#190c0d; stroke:none;" d="M174 144L175 145L174 144z"/>
<path style="fill:#625f60; stroke:none;" d="M251 144L252 145L251 144M99 145L100 146L99 145z"/>
<path style="fill:#fefefe; stroke:none;" d="M116 145L118 147L118 145L116 145z"/>
<path style="fill:#625f60; stroke:none;" d="M432 145L433 146L432 145M113 146L114 147L113 146M118 146L119 147L118 146M190 146L190 147L194 147L190 146M202 146L203 147L202 146M103.667 147.333L104.333 147.667L103.667 147.333z"/>
<path style="fill:#fefefe; stroke:none;" d="M112 147L114 149L114 147L112 147z"/>
<path style="fill:#625f60; stroke:none;" d="M197.667 147.333L198.333 147.667L197.667 147.333M247 147L248 148L247 147M379 147L380 148L379 147M106 148L107 149L106 148z"/>
<path style="fill:#fefefe; stroke:none;" d="M107 148L109 151L109 148L107 148z"/>
<path style="fill:#625f60; stroke:none;" d="M109 148L110 149L109 148z"/>
<path style="fill:#190c0d; stroke:none;" d="M129.667 148.333L130.333 148.667L129.667 148.333z"/>
<path style="fill:#625f60; stroke:none;" d="M200 148L201 149L200 148M430 148L431 149L430 148M50 149L51 150L50 149M74 149L75 150L74 149M102.667 149.333L103.333 149.667L102.667 149.333M188 149L188 153L189 153L188 149M203 149L204 150L203 149M450 149L450 152L451 152L450 149M51 150L52 151L51 150M97 150L97 151L100 151L97 150M107 150L108 151L107 150M381 150L382 151L381 150M52 151L53 152L52 151M72 151L72 152L75 152L72 151M89 151L89 152L93 152L89 151M108 151L109 152L108 151z"/>
<path style="fill:#190c0d; stroke:none;" d="M129 151L129 152L132 152L129 151z"/>
<path style="fill:#625f60; stroke:none;" d="M382 151L383 152L382 151M428 151L429 152L428 151M427 152L428 153L427 152M122 153L122 156L123 156L122 153z"/>
<path style="fill:#fefefe; stroke:none;" d="M123 153L123 156L124 156L123 153z"/>
<path style="fill:#625f60; stroke:none;" d="M124 154L125 155L124 154M388 154L389 155L388 154M55 155L56 156L55 155M117 155L118 159L119 159L119 155L117 155M389 155L390 156L389 155M425 155L426 156L425 155M56 156L57 157L56 156z"/>
<path style="fill:#fefefe; stroke:none;" d="M118 156L118 158L120 158L118 156z"/>
<path style="fill:#625f60; stroke:none;" d="M192 156L193 157L192 156M386 156L387 157L386 156M424 156L425 157L424 156M451.333 156.667L451.667 157.333L451.333 156.667M67 157L68 158L67 157z"/>
<path style="fill:#fefefe; stroke:none;" d="M112 157L114 160L112 157z"/>
<path style="fill:#625f60; stroke:none;" d="M115.333 157.667L115.667 158.333L115.333 157.667M195 157L196 158L195 157M384 157L385 158L384 157M70.6667 158.333L71.3333 158.667L70.6667 158.333M105 159L105 160L110 159L105 159M111.333 158.667L111.667 159.333L111.333 158.667M113 158L114 159L113 158M197 158L198 159L197 158M236 158L237 159L236 158M58 159L59 160L58 159M74 159L74 160L77 160L74 159M99 159L99 160L102 160L99 159z"/>
<path style="fill:#fefefe; stroke:none;" d="M107 159L107 160L110 160L107 159z"/>
<path style="fill:#625f60; stroke:none;" d="M199 159L200 160L199 159M235 159L236 160L235 159M59 160L60 161L59 160M67 160L67 163L68 163L67 160M86.6667 160.333L87.3333 160.667L86.6667 160.333M202 161L203 162L202 161z"/>
<path style="fill:#190c0d; stroke:none;" d="M361.667 161.333L362.333 161.667L361.667 161.333z"/>
<path style="fill:#625f60; stroke:none;" d="M420 161L421 162L420 161M452.333 161.667L452.667 162.333L452.333 161.667M60 162L61 163L60 162M203 162L204 163L203 162M233 162L234 163L233 162z"/>
<path style="fill:#190c0d; stroke:none;" d="M355 162L355 163L359 163L355 162z"/>
<path style="fill:#625f60; stroke:none;" d="M374 162L375 163L374 162M419 162L420 163L419 162z"/>
<path style="fill:#190c0d; stroke:none;" d="M148 163L149 164L148 163z"/>
<path style="fill:#625f60; stroke:none;" d="M204 163L205 164L204 163z"/>
<path style="fill:#190c0d; stroke:none;" d="M249 190L249 191C282.9 191 313.086 195.385 346 203L346 202C318.061 192.909 289.402 188 260 188L260 187L354 164C346.725 161.161 333.561 166.288 326 167.8C300.85 172.829 271.4 176.928 249 190z"/>
<path style="fill:#625f60; stroke:none;" d="M372 163L373 164L372 163M104 164L105 165L104 164z"/>
<path style="fill:#190c0d; stroke:none;" d="M144 164L145 165L144 164z"/>
<path style="fill:#625f60; stroke:none;" d="M232 164L233 165L232 164M62 165L63 166L62 165M134.667 165.333L135.333 165.667L134.667 165.333M369 165L370 166L369 165M132 166L133 167L132 166M206 166L207 167L206 166M231 166L232 167L231 166M453.333 166.667L453.667 167.333L453.333 166.667M63 167L64 168L63 167M66 167L67 168L66 167M106 167L106 176L107 176L106 167M197.667 167.333L198.333 167.667L197.667 167.333M430.667 167.333L431.333 167.667L430.667 167.333M55.6667 168.333L56.3333 168.667L55.6667 168.333M129 168L130 169L129 168z"/>
<path style="fill:#190c0d; stroke:none;" d="M173.333 168.667L173.667 169.333L173.333 168.667z"/>
<path style="fill:#625f60; stroke:none;" d="M187 168L187 171L188 171L187 168M201.667 168.333L202.333 168.667L201.667 168.333M230 168L231 169L230 168M365 168L366 169L365 168M58 169L59 170L58 169M128 169L129 170L128 169M205 169L206 170L205 169M364 169L365 170L364 169M427 169L428 170L427 169M64.6667 170.333L65.3333 170.667L64.6667 170.333M127 170L128 171L127 170M134 170L135 171L134 170M363 170L364 171L363 170M425 170L426 171L425 170M430 170L431 171L430 170M454.333 170.667L454.667 171.333L454.333 170.667z"/>
<path style="fill:#d10e20; stroke:none;" d="M56 171L60 183C49.4925 181.284 52 195.066 52 202L51 202C50.6886 194.747 50.1655 185.535 43 182L46 191L46 192C41.7736 193.486 41.2306 197.547 45 200C44.038 204.239 44.1486 206.636 48 209C45.5748 212.538 46.6039 214.663 49 218L45 217L49 242L46 241L46 246L42 247L44 251C38.982 253.531 37.8878 257.969 42 262L38 270C49.3235 267.604 54.7044 244.992 55 235L56 235C58.6528 255.881 70.8322 273.324 84.2855 289C93.2314 299.424 106.79 307.744 104 323C110.078 319.666 115.773 308.226 107 305L107 304L130 303L130 302L114 302L114 301L125 300L125 298L113 298L113 297L122 295L113 294L113 293L120 291L114 290L114 289L118 289L114 286L114 285L116 283C102.131 282.395 86.2325 274.185 78 263C89.9619 272.081 100.497 279.766 116 281L108 264L107 264L108 272L107 272C105.135 264.182 98.9659 261.244 93 267C94.2103 260.399 89.692 254.717 83 258C84.3972 250.708 80.4747 245.518 73 248L73 247L77 245C74.24 231.798 63.4383 222.605 60.5293 210C57.5969 197.293 68.246 180.126 56 171z"/>
<path style="fill:#625f60; stroke:none;" d="M126 171L127 172L126 171M133 171L134 172L133 171z"/>
<path style="fill:#d10e20; stroke:none;" d="M164 171C161.704 175.36 161.62 177.66 164 182L165 182C167.46 177.877 167.359 175.517 166 171L164 171z"/>
<path style="fill:#625f60; stroke:none;" d="M229 171L230 172L229 171M423 171L424 172L423 171M442 171L443 172L442 171M53 172L54 173L53 172M125 172L126 173L125 172M421 172L422 173L421 172M117 173L118 174L117 173M408 173L409 174L408 173M418 173L419 174L418 173M444 173L445 174L444 173M63 174L64 175L63 174M68 174L68 175L71 175L68 174M116 174L117 175L116 174M132 174L133 175L132 174M359 174L360 175L359 174M407 174L408 175L407 174M415 174L416 175L415 174M429 174L430 175L429 174M455 174L456 175L455 174M54 175L55 176L54 175M73 175L74 176L73 175M118 175L119 176L118 175M123 175L124 176L123 175M186 175L187 176L186 175M228 175L229 176L228 175M358 175L359 176L358 175M411.667 175.333L412.333 175.667L411.667 175.333M67 176L68 177L67 176M115 176L116 177L115 176z"/>
<path style="fill:#d10e20; stroke:none;" d="M159 176L159 189L161 189C162.964 184.094 162.18 180.207 159 176z"/>
<path style="fill:#625f60; stroke:none;" d="M188 176L189 177L188 176M406.667 176.333L407.333 176.667L406.667 176.333M441.333 176.667L441.667 177.333L441.333 176.667M446 176L447 177L446 176M64 177L65 178L64 177M68 177L69 178L68 177M190 177L191 178L190 177M428 177L429 178L428 177M447 177L448 178L447 177M456 177L457 178L456 177M36 178L36 179L43 179L36 178M69 178L70 179L69 178z"/>
<path style="fill:#d10e20; stroke:none;" d="M72 178L73 190C68.9129 187.349 64.085 186.738 65 193L63 209L64 209C68.1882 201.485 84.936 184.788 72 178z"/>
<path style="fill:#625f60; stroke:none;" d="M114.333 178.667L114.667 179.333L114.333 178.667M192 178L193 179L192 178M356 178L357 179L356 178M45 179L46 180L45 179M78 179L79 180L78 179M107 179L108 180L107 179M38 180L39 181L38 180M70 180L70 183L71 183L70 180M131 180L132 181L131 180M195 180L196 181L195 180M227.333 180.667L227.667 181.333L227.333 180.667M355 180L356 181L355 180M427 180L428 181L427 180M457 180L458 181L457 180M39 181L40 182L39 181M130 181L131 182L130 181M196 181L197 182L196 181M397 181L397 182L401 182L397 181M406 181L406 182L410 182L406 181M440.333 181.667L440.667 182.333L440.333 181.667M79 182L79 188L80 188L79 182M108 182L109 183L108 182M129 182L130 183L129 182M354 182L355 183L354 182M392.667 182.333L393.333 182.667L392.667 182.333M414 182L415 183L414 182M426 182L427 183L426 182M40 183L41 184L40 183M49.6667 183.333L50.3333 183.667L49.6667 183.333z"/>
<path style="fill:#190c0d; stroke:none;" d="M60 183L61 184L60 183z"/>
<path style="fill:#625f60; stroke:none;" d="M113 183L113 191L114 191L113 183M389 183L390 184L389 183M417 183L418 184L417 183M458 183L459 184L458 183M66 184L66 185L70 185L66 184M109 184L110 185L109 184M199 184L200 185L199 184M386 184L387 185L386 184z"/>
<path style="fill:#d10e20; stroke:none;" d="M411 221L411 220L408 220L408 219L414 215L404 217L404 216C408.957 215.742 412.63 214.557 415 210C408.674 212.629 389.867 218.489 389.867 205.004C389.867 191.83 418.359 195.744 417.851 210C416.584 245.573 365.102 230.214 346 226.611C340.664 225.605 333.455 223.59 328.044 224.488C318.678 226.041 322.463 237.898 331 238L327 231L345 254L337 254L340 260L347 260L345 254C348.539 257.718 350.75 259.828 356 260L353 253L365 268L357 269C359.876 273.264 362.847 275.101 368 274L365 268C371.815 275.337 381.415 279.512 387.61 287.04C398.365 300.111 394.964 318.795 393 334L392 334C393.117 319.848 396.519 298.807 385.61 287.329C372.874 273.928 348.927 275.867 333 268.687C323.227 264.281 313.795 248.198 303 250.519C287.829 253.78 286.914 270.123 304 267L304 268L299 269C301.1 282.457 312.055 283.023 321 275L312 283C317.284 293.163 331.66 289.817 335 280L336 280L331 290C340.462 294.553 350.037 289.975 353 280L354 280L350 291C357.231 292.722 362.376 291.998 368 287L366 293L378 292L374 295C376.805 300.82 381.074 300.995 387 301L387 302L380 303C380.635 308.699 383.222 311.563 389 312L389 313L383 313C382.446 318.367 383.344 321.821 389 323L389 324L383 324C382.207 328.908 382.61 332.12 388 333L388 334C380.31 337.183 378.351 347.825 369 348.497C358.012 349.286 338.011 324.735 330 340L341 339C337.579 349.267 351.358 350.671 359 351L359 352C347.425 351.761 330.985 343.86 324 357L336 352C333.615 362.732 347.677 359.049 354 359L354 360C347.166 360.596 338.551 361.886 336 369L344 368L345 365L346 365C347.561 369.7 352.366 369.646 354 365C357.998 366.921 360.601 366.426 362 362L363 362C366.095 365.464 369.349 362.273 371 359L372 359L371 364L399 358L398 361L403 361C404.025 364.151 405.146 364.797 408 363C410.81 367.811 416.288 367.917 419 363L420 363L427 367C421.725 356.024 405.892 361.039 401.009 349C397.563 340.503 402.94 330.338 404.539 322C406.907 309.655 405.38 298 402 286L403 286C406.848 293.017 416.68 295.002 424 297C417.179 281.706 398.655 276.758 385 269.741C370.579 262.33 356.885 250.939 345 240C357.479 246.206 367.692 249.991 382 250L382 251L360 249C365.849 255.042 379.057 254 387 254L387 255L367 255C374.791 260.551 387.422 257.673 396 255.36C404.514 253.063 412.103 248.774 419 243.331C424.557 238.945 429.079 233.382 432.179 227C438.964 213.033 435.855 196.322 421.999 188.221C408.672 180.428 382.456 182.104 375.533 198.001C365.829 220.287 396.258 226.495 411 221z"/>
<path style="fill:#625f60; stroke:none;" d="M420 184L421 185L420 184M200 185L201 186L200 185M353.333 185.667L353.667 186.333L353.333 185.667M384 185L385 186L384 185M422 185L423 186L422 185M425 185L426 186L425 185M459 185L460 186L459 185M110 186L111 187L110 186M201 186L202 187L201 186M424 186L425 187L424 186M439 186L440 187L439 186M456 186L457 187L456 186M41 187L41 190L42 190L41 187z"/>
<path style="fill:#d10e20; stroke:none;" d="M163 187C160.629 191.485 160.089 194.369 164 198C166.137 193.539 166.638 190.693 163 187z"/>
<path style="fill:#625f60; stroke:none;" d="M381 187L382 188L381 187M457 187L458 188L457 187M460 187L461 188L460 187M126 188L127 189L126 188z"/>
<path style="fill:#d10e20; stroke:none;" d="M156 188L154 197C157.252 194.282 158.483 191.725 156 188z"/>
<path style="fill:#625f60; stroke:none;" d="M189.667 188.333L190.333 188.667L189.667 188.333M226 188L226 194L227 194L226 188M194 189L195 190L194 189M203 189L204 190L203 189M378 189L379 190L378 189M78 190L79 191L78 190M197.667 190.333L198.333 190.667L197.667 190.333M377 190L378 191L377 190M438 190L439 191L438 190M125.333 191.667L125.667 192.333L125.333 191.667M200 191L201 192L200 191M204 191L205 192L204 191M376 191L377 192L376 191M77 192L78 193L77 192M39 193L40 194L39 193M205 193L206 194L205 193M353.333 193.667L353.667 194.333L353.333 193.667M437.333 193.667L437.667 194.333L437.333 193.667M76 194L77 195L76 194M182 194L183 195L182 194M374 194L375 195L374 194z"/>
<path style="fill:#d10e20; stroke:none;" d="M158 195L157 205C161.63 202.561 161.338 199.646 160 195L158 195z"/>
<path style="fill:#190c0d; stroke:none;" d="M244 202C270.803 207.547 291.06 222.998 313 238C300.224 219.913 272.245 205.917 251 201L251 200L290 198.09L342 205C336.132 201.857 328.494 201.279 322 200.001C304.436 196.545 285.815 194.128 268 195.83C260.896 196.509 248.51 195.417 244 202z"/>
<path style="fill:#625f60; stroke:none;" d="M124 196L125 197L124 196M185 196L186 197L185 196M74 197L75 198L74 197M123 197L124 198L123 197M188 197L189 198L188 197M354 197L355 198L354 197M436 197L437 198L436 197M39 198L40 199L39 198z"/>
<path style="fill:#d10e20; stroke:none;" d="M152 198L151 203L152 203L152 198z"/>
<path style="fill:#625f60; stroke:none;" d="M190 198L191 199L190 198M225.333 198.667L225.667 199.333L225.333 198.667M372 198L373 199L372 198M192 199L193 200L192 199M355 199L356 200L355 199M399 199L399 200L405 200L399 199M40 200L41 201L40 200M72 200L73 201L72 200M121 200L122 201L121 200z"/>
<path style="fill:#190c0d; stroke:none;" d="M171 200L172 201L171 200z"/>
<path style="fill:#625f60; stroke:none;" d="M396 200L397 201L396 200z"/>
<path style="fill:#fefefe; stroke:none;" d="M397.019 200.573C392.592 201.901 391.112 206.281 395.149 209.258C398.383 211.642 404.31 211.525 407.995 210.347C421.235 206.115 404.53 198.32 397.019 200.573z"/>
<path style="fill:#625f60; stroke:none;" d="M408 200L409 201L408 200M436 200L437 201L436 200M71 201L72 202L71 201M195 201L196 202L195 201M356 201L357 202L356 201M371 201L371 207L372 207L371 201M410 201L411 202L410 201z"/>
<path style="fill:#190c0d; stroke:none;" d="M52 202L52 205L53 205L52 202z"/>
<path style="fill:#625f60; stroke:none;" d="M120 202L121 203L120 202z"/>
<path style="fill:#d10e20; stroke:none;" d="M154 202C151.228 206.18 150.616 208.487 153 213C157.036 209.602 156.822 206.283 154 202z"/>
<path style="fill:#625f60; stroke:none;" d="M224 202L225 203L224 202M412 202L413 203L412 202z"/>
<path style="fill:#d10e20; stroke:none;" d="M162 203C159.926 206.831 159.176 208.943 161 213C165.785 210.457 165.454 206.763 162 203z"/>
<path style="fill:#625f60; stroke:none;" d="M357 203L358 204L357 203M413 203L414 204L413 203M437.333 203.667L437.667 204.333L437.333 203.667M69 204L70 205L69 204M119 204L120 205L119 204M223 205L224 206L223 205z"/>
<path style="fill:#190c0d; stroke:none;" d="M343 205L343 206L346 206L343 205z"/>
<path style="fill:#625f60; stroke:none;" d="M414 205L415 206L414 205M41 206L42 207L41 206M118.333 206.667L118.667 207.333L118.333 206.667M200 206L201 207L200 206M359 206L360 207L359 206M67 207L68 208L67 207M184.667 207.333L185.333 207.667L184.667 207.333M197.667 207.333L198.333 207.667L197.667 207.333M201 207L202 208L201 207M222 207L223 208L222 207M360 207L361 208L360 207M392 207L393 208L392 207M42 208L43 209L42 208M393 208L394 209L393 208M43 209L44 210L43 209M394 209L395 210L394 209M410 209L411 210L410 209M117.333 210.667L117.667 211.333L117.333 210.667z"/>
<path style="fill:#d10e20; stroke:none;" d="M149 210L148 221C152.34 217.516 152.586 214.253 149 210z"/>
<path style="fill:#625f60; stroke:none;" d="M182.333 210.667L182.667 211.333L182.333 210.667M220 210L221 211L220 210z"/>
<path style="fill:#190c0d; stroke:none;" d="M240 210L240 211C255.836 222.162 267.99 241.703 278 258L279 258C271.992 241.171 259.784 225.793 247 213C272.391 214.093 292.486 230.225 313 243C297.802 222.354 264.861 210 240 210z"/>
<path style="fill:#625f60; stroke:none;" d="M372 210L373 211L372 210M396 210L397 211L396 210M408 210L409 211L408 210M65 211L66 212L65 211z"/>
<path style="fill:#d10e20; stroke:none;" d="M157 211L156 221C160.924 218.406 160.844 214.71 157 211M166 211C163.228 215.18 162.616 217.487 165 222C169.098 218.572 169.032 215.271 166 211z"/>
<path style="fill:#625f60; stroke:none;" d="M352 211L352 212L355 212L352 211M399 211L399 212L405 212L399 211M347.667 212.333L348.333 212.667L347.667 212.333M373 212L374 213L373 212M116 213L117 214L116 213M343.667 213.333L344.333 213.667L343.667 213.333M43.3333 214.667L43.6667 215.333L43.3333 214.667M183 214L184 215L183 214M340 214L341 215L340 214M374 214L375 215L374 214M115 215L116 216L115 215M338 215L339 216L338 215M212.667 216.333L213.333 216.667L212.667 216.333M66 217L67 218L66 217M114 217L115 218L114 217M184 217L185 218L184 217M209 217L210 218L209 217z"/>
<path style="fill:#190c0d; stroke:none;" d="M237 217C237 235.926 240.771 251.72 245 270L246 270L239 221C254.46 231.558 266.591 245.573 277 261C277.009 256.002 272.4 250.94 269.572 247C261.668 235.989 250.388 221.274 237 217z"/>
<path style="fill:#625f60; stroke:none;" d="M42.3333 218.667L42.6667 219.333L42.3333 218.667z"/>
<path style="fill:#190c0d; stroke:none;" d="M49.6667 218.333L50.3333 218.667L49.6667 218.333z"/>
<path style="fill:#d10e20; stroke:none;" d="M153 218C150.218 222.183 149.408 224.537 152 229L153 229C155.582 224.944 155.663 222.059 153 218z"/>
<path style="fill:#625f60; stroke:none;" d="M205 218L206 219L205 218M332 218L333 219L332 218M377 218L378 219L377 218M437 218L438 219L437 218M113.333 219.667L113.667 220.333L113.333 219.667z"/>
<path style="fill:#d10e20; stroke:none;" d="M161 219C158.736 223.183 158.414 225.503 160 230C164.34 226.516 164.586 223.253 161 219z"/>
<path style="fill:#625f60; stroke:none;" d="M200.667 219.333L201.333 219.667L200.667 219.333M378 219L379 220L378 219M68 220L69 221L68 220z"/>
<path style="fill:#d10e20; stroke:none;" d="M169 220L168 230C172.63 227.561 172.338 224.646 171 220L169 220z"/>
<path style="fill:#625f60; stroke:none;" d="M186 220L187 221L186 220M196.667 220.333L197.333 220.667L196.667 220.333M329 220L330 221L329 220M379 220L380 221L379 220z"/>
<path style="fill:#190c0d; stroke:none;" d="M405 220L405 221L408 221L405 220z"/>
<path style="fill:#d10e20; stroke:none;" d="M146 221L145 227L146 227L146 221z"/>
<path style="fill:#625f60; stroke:none;" d="M187 221L188 222L187 221M191.667 221.333L192.333 221.667L191.667 221.333z"/>
<path style="fill:#190c0d; stroke:none;" d="M229 221C219.736 236.026 212.771 252.036 212 270L213 270C214.684 256.961 219.326 237.409 229 228C229.298 242.376 235.3 258.432 242 271L243 271L233.424 240L229 221z"/>
<path style="fill:#625f60; stroke:none;" d="M328 221L329 222L328 221M336.667 222.333L337.333 222.667L336.667 222.333M382 222L383 223L382 222M436 222L437 223L436 222M42.3333 223.667L42.6667 224.333L42.3333 223.667M70 223L71 224L70 223M112.333 223.667L112.667 224.333L112.333 223.667M342.667 223.333L343.333 223.667L342.667 223.333M348 224L349 225L348 224M386 224L387 225L386 224M352 225L353 226L352 225M388.667 225.333L389.333 225.667L388.667 225.333M435 225L436 226L435 225M72 226L73 227L72 226z"/>
<path style="fill:#d10e20; stroke:none;" d="M148 226C145.53 230.085 144.94 232.617 147 237C151.098 233.572 151.032 230.271 148 226M156 226L155 237C160.152 234.269 159.377 230.116 156 226z"/>
<path style="fill:#190c0d; stroke:none;" d="M206 226C184.29 232.417 162.406 233.03 151 257L152 257C164.33 240.818 182.011 231.581 202 229C195.469 238.87 189.6 250.128 188 262L189 262L199.204 238L206 226M191 262L192 262C196.955 250.101 204.399 239.564 214 231C209.884 245.614 208.002 260.834 208 276L209 276L219 226C204.273 230.334 194.818 248.042 191 262z"/>
<path style="fill:#625f60; stroke:none;" d="M356 226L357 227L356 226M393 226L393 227L402 227L393 226M404 226L405 227L404 226z"/>
<path style="fill:#d10e20; stroke:none;" d="M165 227L161 234C164.659 232.704 166.935 230.882 165 227z"/>
<path style="fill:#625f60; stroke:none;" d="M360 227L361 228L360 227M402 227L403 228L402 227M434 227L435 228L434 227M43 228L44 229L43 228M73 228L74 229L73 228M364.667 228.333L365.333 228.667L364.667 228.333M400 228L401 229L400 228M369.667 229.333L370.333 229.667L369.667 229.333M396.667 229.333L397.333 229.667L396.667 229.333M433 229L434 230L433 229M74 230L75 231L74 230M111 230L111 233L112 233L111 230M375 230L375 231L379 231L375 230M390 230L390 231L393 231L390 230M44 231L45 232L44 231M432 231L433 232L432 231M75 232L76 233L75 232M45.3333 233.667L45.6667 234.333L45.3333 233.667M76 234L77 235L76 234M430 234L431 235L430 234z"/>
<path style="fill:#d10e20; stroke:none;" d="M151 235L150 245C154.63 242.561 154.338 239.646 153 235L151 235M160 235L161 236L160 235z"/>
<path style="fill:#190c0d; stroke:none;" d="M338 235L345 240L345 239L338 235M131.667 236.333L132.333 236.667L131.667 236.333z"/>
<path style="fill:#d10e20; stroke:none;" d="M144 236L144 243L145 243L144 236z"/>
<path style="fill:#625f60; stroke:none;" d="M46.3333 237.667L46.6667 238.333L46.3333 237.667M77 237L78 238L77 237M109 237L110 238L109 237M427 238L426 240L427 238z"/>
<path style="fill:#0fb745; stroke:none;" d="M0 239L0 479L479 479L479 239C464.428 239 441.664 234.63 428 239.603C422.56 241.582 417.893 247.156 413 250.302C402.36 257.142 387.74 262.102 375 260L375 261C394.914 274.177 419.879 278.697 430 303L407 294C408.848 303.956 409.061 314.096 406.765 324C405.009 331.572 400.669 341.19 403.742 348.985C406.462 355.88 415.17 355.557 421 358.109C428.217 361.267 429.979 366.716 430 374C422.455 367.749 419.316 371.184 411 369.108C405.168 367.652 399.735 362.676 394 361.889C389.257 361.238 383.559 365.088 379 366.24C370.946 368.275 363.16 367.855 355 370.35C347.285 372.708 338.523 366.951 334 376L333 376C331.992 369.863 334.107 366.275 337 361C330.318 356.853 326.908 358.014 321 363C321.233 353.099 327.188 347.449 337 347L337 342C332.526 342.146 330.232 343.022 328 347L327 347C327.007 344.708 326.815 342.233 327.434 339.999C332.752 320.804 355.087 342.692 364 345.21C371.081 347.21 379.443 342.729 380.433 335.001C382.216 321.087 381.037 298.127 364 294.803C354.873 293.023 344.815 296.009 336 294.432C330.188 293.392 322.424 292.735 317 290.517C307.74 286.73 300.54 274.644 293.185 288C292.174 289.836 291.194 291.908 290.873 294C289.64 302.037 300.308 304.331 306 306.344C317.875 310.545 329.963 317.461 332 331C326.849 327.072 318.11 320.814 311.17 323.604C305.035 326.071 300.403 334.131 295 338.073C287.606 343.466 278.82 347.214 271 352L271 354C282.647 358.253 301.268 357.025 297 375C291.719 366.108 287.043 371.001 279 369.12C273.066 367.732 267.732 362.683 262 361.889C257.262 361.232 251.554 365.089 247 366.24C238.367 368.421 229.79 368.463 221 370.944C212.625 373.309 207.762 367.721 201 376C199.565 369.753 201.688 366.197 205 361C198.318 356.853 194.908 358.014 189 363C189.233 353.099 195.188 347.449 205 347L205 342C200.526 342.146 198.232 343.022 196 347L195 347C195.007 344.708 194.815 342.233 195.434 339.999C200.716 320.931 225.138 343.271 235 344.66C243.748 345.892 258.709 335.197 263 328C249.584 323.998 226.17 315.89 232 297C215.286 302.345 198.945 312.951 181 313L176 336L166 314L138 354C150.89 357.917 170.473 358.226 167 377L166 377C162.568 367.456 153.415 373.36 146 370.853C141.42 369.305 135.718 364.781 131 364.681C125.33 364.562 119.553 369.185 114 370.306C106.151 371.89 95.8752 374.642 88 375.377C79.9627 376.126 77.002 374.413 70 380L74 367L74 366C68.1729 361.089 63.7852 362.367 59 368C57.4687 358.202 64.7032 351.818 74 351C72.8128 343.892 67.2646 347.302 65 352L64 352C64.0015 349.705 63.8105 347.266 64.2284 344.999C65.5277 337.951 72.7489 335.6 79 337.482C89.4767 340.636 99.1683 354.035 111 346.991C126.038 338.037 125.192 318.68 133 305L115 307C113.608 317.325 108.686 324.819 99 329C108.094 305.384 79.1142 288.317 67.0787 270C62.874 263.601 59.9185 251.441 54 247C53.4809 259.059 45.5544 277.132 31 271C39.0737 266.195 34.9228 262.333 36.7276 255C38.1177 249.353 41.7215 244.289 44 239L0 239z"/>
<path style="fill:#625f60; stroke:none;" d="M44 239L45 240L44 239M78 239L79 240L78 239z"/>
<path style="fill:#0fb745; stroke:none;" d="M79 239C80.9929 251.925 96.4422 263.072 109 261L109 239L79 239z"/>
<path style="fill:#d10e20; stroke:none;" d="M323 239L324 246L326 246L327 245L323 239M327 240C329.669 244.825 331.56 245.954 337 245C334.518 240.411 332.026 239.766 327 240z"/>
<path style="fill:#625f60; stroke:none;" d="M43 240L44 241L43 240M108 241L109 242L108 241z"/>
<path style="fill:#d10e20; stroke:none;" d="M147 242L145 254L146 254C148.764 249.693 149.928 246.525 147 242z"/>
<path style="fill:#625f60; stroke:none;" d="M423 242L424 243L423 242M422 243L423 244L422 243M421 244L422 245L421 244M54 246L55 247L54 246z"/>
<path style="fill:#d10e20; stroke:none;" d="M324 247C325.81 252.011 327.785 252.938 333 253C331.344 248.287 328.852 247.158 324 247M332 247C334.565 251.639 336.67 253.526 342 252C339.553 247.639 336.812 247.057 332 247z"/>
<path style="fill:#625f60; stroke:none;" d="M417 247L418 248L417 247M84 248L85 249L84 248M85 250L86 251L85 250z"/>
<path style="fill:#d10e20; stroke:none;" d="M314 250L324 253L314 250z"/>
<path style="fill:#625f60; stroke:none;" d="M53.3333 251.667L53.6667 252.333L53.3333 251.667M411 251L412 252L411 251M57 252L58 253L57 252z"/>
<path style="fill:#190c0d; stroke:none;" d="M352 252L353 253L352 252z"/>
<path style="fill:#625f60; stroke:none;" d="M87 253L88 254L87 253z"/>
<path style="fill:#190c0d; stroke:none;" d="M388 253L388 254L392 254L388 253z"/>
<path style="fill:#625f60; stroke:none;" d="M36 254L37 255L36 254z"/>
<path style="fill:#d10e20; stroke:none;" d="M318 255C321.06 259.106 323.845 260.945 329 260L326 254L318 255M328 254C330.613 258.762 332.502 260.397 338 260C336.119 254.662 333.037 254.862 328 254z"/>
<path style="fill:#625f60; stroke:none;" d="M403 255L404 256L403 255z"/>
<path style="fill:#190c0d; stroke:none;" d="M72 256L78 263L72 256M130 257L130 258L135 257L130 257z"/>
<path style="fill:#625f60; stroke:none;" d="M52 257L53 258L52 257M108 257L109 258L108 257z"/>
<path style="fill:#190c0d; stroke:none;" d="M82 258L81 260L82 258z"/>
<path style="fill:#625f60; stroke:none;" d="M394 258L395 259L394 258M36 259L37 260L36 259z"/>
<path style="fill:#190c0d; stroke:none;" d="M279 259L280 260L279 259z"/>
<path style="fill:#625f60; stroke:none;" d="M389 259L390 260L389 259M51 260L52 261L51 260M377 260L377 261L382 261L377 260M37 261L38 262L37 261z"/>
<path style="fill:#190c0d; stroke:none;" d="M42 261L43 262L42 261z"/>
<path style="fill:#625f60; stroke:none;" d="M106 261L107 262L106 261z"/>
<path style="fill:#d10e20; stroke:none;" d="M334 262L337 268L344 267C341.518 262.411 339.026 261.766 334 262M343 262C345.657 266.444 347.849 267.791 353 267L350 261L343 262M352 261C354.159 265.934 356.798 266.938 362 267C359.908 261.779 357.151 261.638 352 261z"/>
<path style="fill:#190c0d; stroke:none;" d="M309 262L304 266L304 267L309 262z"/>
<path style="fill:#d10e20; stroke:none;" d="M327 262L327 263L335 267C332.981 263.4 331.102 262.311 327 262z"/>
<path style="fill:#625f60; stroke:none;" d="M377 262L378 263L377 262M37 263L38 264L37 263z"/>
<path style="fill:#190c0d; stroke:none;" d="M187 263L187 266L188 266L187 263M190.333 263.667L190.667 264.333L190.333 263.667z"/>
<path style="fill:#625f60; stroke:none;" d="M63 264L64 265L63 264z"/>
<path style="fill:#d10e20; stroke:none;" d="M287 264L285 272L296 272L296 271L290 271L290 270L293 268L287 264z"/>
<path style="fill:#625f60; stroke:none;" d="M47 265L48 266L47 265z"/>
<path style="fill:#d10e20; stroke:none;" d="M264 265L264 275L278 273L278 272L273 272L273 271L279 269L279 268L271 269L271 268L275 267L264 265z"/>
<path style="fill:#625f60; stroke:none;" d="M382 265L383 266L382 265z"/>
<path style="fill:#d10e20; stroke:none;" d="M249 280L261 276L258 274L262 270L257 272L257 271L262 266C255.37 268.255 251.686 273.777 249 280z"/>
<path style="fill:#190c0d; stroke:none;" d="M92 267L93 268L92 267z"/>
<path style="fill:#d10e20; stroke:none;" d="M179 268L178 273L179 273L179 268M349 269L349 270L358 273L355 268L349 269z"/>
<path style="fill:#625f60; stroke:none;" d="M66 269L67 270L66 269z"/>
<path style="fill:#190c0d; stroke:none;" d="M145 269L146 270L145 269z"/>
<path style="fill:#d10e20; stroke:none;" d="M344 269L344 270L347 270L344 269z"/>
<path style="fill:#625f60; stroke:none;" d="M31 270L32 271L31 270M44 270L45 271L44 270z"/>
<path style="fill:#d10e20; stroke:none;" d="M281 270L281 272L283 272L281 270z"/>
<path style="fill:#625f60; stroke:none;" d="M392 270L393 271L392 270z"/>
<path style="fill:#d10e20; stroke:none;" d="M220 274L224 292L232 291L232 292L223 297C227.977 295.848 234.878 294.306 237.91 289.787C247.108 276.08 231.519 267.548 220 274z"/>
<path style="fill:#625f60; stroke:none;" d="M68 272L69 273L68 272z"/>
<path style="fill:#190c0d; stroke:none;" d="M272 272L273 273L272 272M322 272L321 275L322 272z"/>
<path style="fill:#625f60; stroke:none;" d="M397 272L398 273L397 272M399 273L400 274L399 273M401 274L402 275L401 274z"/>
<path style="fill:#190c0d; stroke:none;" d="M256.667 275.333L257.333 275.667L256.667 275.333z"/>
<path style="fill:#d10e20; stroke:none;" d="M274 282L277 276C261.439 285.399 257.887 309.069 280 311L280 312C277.213 311.872 274.614 311.588 272 310.517C254.671 303.414 264.651 289.443 270 278L265 281L266 278L262 282L261 282L261 279C253.466 281.901 247.566 282.767 243 290L254 291L254 292C248.584 292 241.767 291.079 237.225 294.703C224.446 304.895 241.028 313.851 251 312L251 313L242 316C249.118 325.579 259.77 325.963 268 318L264 326C270.211 327.478 274.868 326.912 280 323L283 328L283 329L273 329L276 330L276 331C270.244 329.478 261.224 328.62 267 337C262.1 334.871 259.005 333.873 256 339L260 341L260 342C255.599 340.4 248.248 338.98 251 346L248 344L247 344C234.386 351.761 225.291 342.552 214 337.324C208.137 334.609 201.303 333.45 198 340L209 339C205.442 349.419 219.064 350.658 227 351L227 352C215.425 351.761 198.985 343.86 192 357L204 352C201.391 363.741 218.661 358.802 225 358L225 359C217.02 360.075 207.076 361.375 203 369L212 368L213 365L214 365C215.638 369.931 219.751 369.076 222 365C225.761 367.517 228.66 366.243 230 362L231 362C234.419 365.827 237.93 361.687 239 358L240 358L239 364L240 365L267 358L266 361L270 360L271 360C271.578 363.516 272.703 365.072 276 363C278.705 367.63 283.382 367.691 287 364L288 364L295 367C291.2 359.093 273.202 355.922 265 354C279.188 341.907 303.734 336.621 310 317L311 317L311 320L327 324C319.784 310.129 279.764 307.408 290.529 288C292.904 283.719 296.309 280.073 299 276C293.363 277.616 290.038 282.702 288 288L287 288L294 275L284 285L283 285L289 275L279 283L284 275L274 282z"/>
<path style="fill:#625f60; stroke:none;" d="M403 275L404 276L403 275z"/>
<path style="fill:#d10e20; stroke:none;" d="M182 302L186 302L186 303L181 306L190 306L190 307L181 309L181 310C197.181 309.989 199 300.11 199 286L200 286L200 301L212 300L212 301L199 304L199 305C217.962 304.987 224.575 293.587 219 276L210 285L208 285C200.613 261.885 184.417 291.826 182 302z"/>
<path style="fill:#625f60; stroke:none;" d="M405 276L406 277L405 276z"/>
<path style="fill:#190c0d; stroke:none;" d="M136 277L137 278L136 277z"/>
<path style="fill:#d10e20; stroke:none;" d="M242 277L242 286L243 286C244.7 282.285 244.834 280.065 242 277z"/>
<path style="fill:#190c0d; stroke:none;" d="M132 278L132 279L135 279L132 278z"/>
<path style="fill:#d10e20; stroke:none;" d="M169 278L166 283L165 280L164 280L166 287C169.347 284.427 171.213 282.002 169 278z"/>
<path style="fill:#190c0d; stroke:none;" d="M336.333 278.667L336.667 279.333L336.333 278.667z"/>
<path style="fill:#625f60; stroke:none;" d="M410 279L411 280L410 279z"/>
<path style="fill:#190c0d; stroke:none;" d="M264.333 281.667L264.667 282.333L264.333 281.667M273 282L274 283L273 282z"/>
<path style="fill:#625f60; stroke:none;" d="M303 282L304 283L303 282z"/>
<path style="fill:#190c0d; stroke:none;" d="M198.333 283.667L198.667 284.333L198.333 283.667M278 283L277 286L278 286L278 283z"/>
<path style="fill:#625f60; stroke:none;" d="M77 284L78 285L77 284z"/>
<path style="fill:#d10e20; stroke:none;" d="M171 284L168 295C173.814 293.268 173.653 288.763 171 284z"/>
<path style="fill:#190c0d; stroke:none;" d="M282 285L281 289L282 289L282 285z"/>
<path style="fill:#625f60; stroke:none;" d="M309 285L310 286L309 285z"/>
<path style="fill:#190c0d; stroke:none;" d="M368.333 285.667L368.667 286.333L368.333 285.667M401 285L402 286L401 285M133 287L134 288L133 287z"/>
<path style="fill:#625f60; stroke:none;" d="M293 287L294 288L293 287M420 287L421 288L420 287z"/>
<path style="fill:#190c0d; stroke:none;" d="M128 288L131 291L128 288M286 288L285 292L286 292L286 288z"/>
<path style="fill:#625f60; stroke:none;" d="M312 288L313 289L312 288M81 289L82 290L81 289z"/>
<path style="fill:#190c0d; stroke:none;" d="M124 289L126 291L124 289z"/>
<path style="fill:#625f60; stroke:none;" d="M82 290L83 291L82 290z"/>
<path style="fill:#190c0d; stroke:none;" d="M232.667 290.333L233.333 290.667L232.667 290.333z"/>
<path style="fill:#625f60; stroke:none;" d="M291 291L292 292L291 291M319 291L320 292L319 291M328 291L329 292L328 291z"/>
<path style="fill:#190c0d; stroke:none;" d="M378.667 291.333L379.333 291.667L378.667 291.333z"/>
<path style="fill:#625f60; stroke:none;" d="M347 292L348 293L347 292z"/>
<path style="fill:#d10e20; stroke:none;" d="M157 293L155 301C158.21 298.492 159.842 296.419 157 293z"/>
<path style="fill:#625f60; stroke:none;" d="M332 293L333 294L332 293M349 293L350 294L349 293M425 293L426 294L425 293M290 294L291 295L290 294M335.667 294.333L336.333 294.667L335.667 294.333M339.667 294.333L340.333 294.667L339.667 294.333M365 295L366 296L365 295M411 295L412 296L411 295M370.667 296.333L371.333 296.667L370.667 296.333M407.333 296.667L407.667 297.333L407.333 296.667M230 297L231 298L230 297M290 297L291 298L290 297M417 297L418 298L417 297M89 298L90 299L89 298M227 298L228 299L227 298M420 298L421 299L420 298M90 299L91 300L90 299z"/>
<path style="fill:#d10e20; stroke:none;" d="M159 299L155 303L157 309C161.73 306.607 162.25 303.113 159 299z"/>
<path style="fill:#190c0d; stroke:none;" d="M212 299L213 300L212 299z"/>
<path style="fill:#625f60; stroke:none;" d="M222.667 299.333L223.333 299.667L222.667 299.333M291 299L292 300L291 299M422 299L423 300L422 299M91 300L92 301L91 300M292 300L293 301L292 300M92 301L93 302L92 301z"/>
<path style="fill:#190c0d; stroke:none;" d="M186 301L187 302L186 301z"/>
<path style="fill:#625f60; stroke:none;" d="M230 301L230 305L231 305L230 301M93 302L94 303L93 302M218 302L219 303L218 302M376 302L377 303L376 302M94 303L95 304L94 303M298 303L299 304L298 303M377 303L377 307L378 307L377 303M215 304L216 305L215 304M129 305L130 306L129 305z"/>
<path style="fill:#190c0d; stroke:none;" d="M170 305L169 307L170 305M190 305L191 306L190 305z"/>
<path style="fill:#625f60; stroke:none;" d="M213 305L214 306L213 305M124 306L125 307L124 306M306 306L307 307L306 306M207 307L208 308L207 307M309 307L310 308L309 307M408 307L408 313L409 313L408 307M130 308L131 309L130 308M195 309L196 310L195 309z"/>
<path style="fill:#190c0d; stroke:none;" d="M255 309L251 311L251 312L256 310L255 309z"/>
<path style="fill:#625f60; stroke:none;" d="M100 310L101 311L100 310M114 310L115 311L114 310M316 310L317 311L316 310M129 311L130 312L129 311M192 311L193 312L192 311M101 312L102 313L101 312M189 312L190 313L189 312z"/>
<path style="fill:#190c0d; stroke:none;" d="M280 312L280 313L285 313L280 312z"/>
<path style="fill:#625f60; stroke:none;" d="M380 312L381 313L380 312M321 313L322 314L321 313M113 314L114 315L113 314M167 314L168 315L167 314M165 315L166 316L165 315M239 316L240 317L239 316M112 317L113 318L112 317z"/>
<path style="fill:#190c0d; stroke:none;" d="M268 317L269 318L268 317z"/>
<path style="fill:#625f60; stroke:none;" d="M128 318L129 319L128 318M169 318L170 319L169 318M180.333 319.667L180.667 320.333L180.333 319.667M170 320L171 321L170 320M407 320L408 321L407 320M126 321L127 322L126 321M101 322L102 323L101 322M244 322L245 323L244 322z"/>
<path style="fill:#190c0d; stroke:none;" d="M280 322L281 323L280 322z"/>
<path style="fill:#625f60; stroke:none;" d="M329 322L330 323L329 322M108 323L109 324L108 323M318 323L319 324L318 323M107 324L108 325L107 324M247 324L248 325L247 324M321 324L322 325L321 324M330 324L331 325L330 324M124 325L125 326L124 325M250 325L251 326L250 325z"/>
<path style="fill:#190c0d; stroke:none;" d="M288 325L256 348L256 349C265.498 346.251 288.624 337.359 288 325z"/>
<path style="fill:#625f60; stroke:none;" d="M323 325L324 326L323 325M406 325L407 326L406 325M179 326L180 327L179 326M254 326L255 327L254 326M325 326L326 327L325 326M262 327L263 328L262 327M331 327L332 328L331 327M328 328L329 329L328 328M379 328L380 329L379 328M405 328L406 329L405 328M98 329L99 330L98 329M173 329L174 330L173 329M261 331L262 332L261 331M123 332L124 333L123 332M202 332L203 333L202 332M208 332L209 333L208 332M334 332L335 333L334 332M340 332L341 333L340 332M380 332L381 333L380 332M404 332L405 333L404 332M153 333L154 334L153 333M199 333L200 334L199 333M256 333L257 334L256 333M331 333L332 334L331 333z"/>
<path style="fill:#190c0d; stroke:none;" d="M136 334L134 338L136 334z"/>
<path style="fill:#625f60; stroke:none;" d="M255 334L256 335L255 334z"/>
<path style="fill:#190c0d; stroke:none;" d="M391 334L391 337L392 337L391 334z"/>
<path style="fill:#625f60; stroke:none;" d="M347 335L348 336L347 335M73 336L73 337L76 337L73 336M151 336L152 337L151 336M380 336L381 337L380 336M403 336L404 337L403 336M219 337L220 338L219 337M251 337L252 338L251 337M67 338L68 339L67 338M82 338L83 339L82 338z"/>
<path style="fill:#d10e20; stroke:none;" d="M67 344L79 343C71.5042 354.747 93.2596 352 100 352C92.7174 347.078 73.5508 331.83 67 344z"/>
<path style="fill:#625f60; stroke:none;" d="M222 339L223 340L222 339M293 339L294 340L293 339M353 339L354 340L353 339M65 340L66 341L65 340M148 340L149 341L148 340M247 340L248 341L247 340M87 341L88 342L87 341M201.667 341.333L202.333 341.667L201.667 341.333M333.667 341.333L334.333 341.667L333.667 341.333M356 341L357 342L356 341M245 342L246 343L245 342M90 343L91 344L90 343M230 343L231 344L230 343M243 343L244 344L243 343M145 344L146 345L145 344M233 344L234 345L233 344M240 344L241 345L240 344M93 345L94 346L93 345M196 345L197 346L196 345M282 345L283 346L282 345M371 345L372 346L371 345M73 346L74 347L73 346z"/>
<path style="fill:#190c0d; stroke:none;" d="M213 346L214 347L213 346z"/>
<path style="fill:#625f60; stroke:none;" d="M280 346L281 347L280 346z"/>
<path style="fill:#190c0d; stroke:none;" d="M345 346L346 347L345 346z"/>
<path style="fill:#625f60; stroke:none;" d="M67 347L68 348L67 347M110 347L111 348L110 347M66 348L67 349L66 348M99 348L100 349L99 348M108 348L109 349L108 348M103 349L103 350L106 350L103 349M141 349L142 350L141 349M194 349L195 350L194 349M275 349L276 350L275 349M326 349L327 350L326 349M403 349L404 350L403 349M273 350L274 351L273 350M64 351L65 352L64 351M69 351L70 352L69 351z"/>
<path style="fill:#190c0d; stroke:none;" d="M204 351L205 352L204 351M336 351L337 352L336 351z"/>
<path style="fill:#625f60; stroke:none;" d="M66 352L67 353L66 352M270 352L271 353L270 352M405 352L406 353L405 352M64 353L65 354L64 353M406 353L407 354L406 353M138 354L139 355L138 354z"/>
<path style="fill:#190c0d; stroke:none;" d="M264 354L265 355L264 354z"/>
<path style="fill:#625f60; stroke:none;" d="M272 354L273 355L272 354M408 354L409 355L408 354M143 355L143 356L146 356L143 355M274 355L275 356L274 355M412 355L413 356L412 355M189 356L190 357L189 356M279.667 356.333L280.333 356.667L279.667 356.333M321 356L322 357L321 356M416 356L417 357L416 356M155 357L156 358L155 357M197 357L198 358L197 357M200 357L201 358L200 357M287 357L288 358L287 357M329 357L330 358L329 357M332 357L333 358L332 357M290 358L291 359L290 358z"/>
<path style="fill:#190c0d; stroke:none;" d="M354 358L354 359L357 359L354 358z"/>
<path style="fill:#625f60; stroke:none;" d="M422 358L423 359L422 358M193 359L194 360L193 359M292 359L293 360L292 359M325 359L326 360L325 359M424 359L425 360L424 359z"/>
<path style="fill:#190c0d; stroke:none;" d="M95 361L96 362L95 361z"/>
<path style="fill:#625f60; stroke:none;" d="M162 361L163 362L162 361M260 361L261 362L260 361M263 361L264 362L263 361M392 361L393 362L392 361M395 361L396 362L395 361M65 362L66 363L65 362M70 362L71 363L70 362M336 362L337 363L336 362M58 363L58 367L59 367L58 363M255 363L256 364L255 363z"/>
<path style="fill:#190c0d; stroke:none;" d="M286 363L287 364L286 363z"/>
<path style="fill:#625f60; stroke:none;" d="M335 363L336 364L335 363M387 363L388 364L387 363M73 365L74 366L73 365M127 365L128 366L127 365M201 365L202 366L201 365M269 365L270 366L269 365M401 365L402 366L401 365M236.667 366.333L237.333 366.667L236.667 366.333M270 366L271 367L270 366M333 366L334 367L333 366M368.667 366.333L369.333 366.667L368.667 366.333M59 367L60 368L59 367M122 367L123 368L122 367M230 367L231 368L230 367M272 367L272 368L275 368L272 367M405.667 367.333L406.333 367.667L405.667 367.333M200 368L201 369L200 368M290 368L291 369L290 368M422 368L423 369L422 368M117 369L118 370L117 369M223 369L223 370L226 370L223 369M332.333 369.667L332.667 370.333L332.333 369.667M355 369L355 370L359 370L355 369M101 370L102 371L101 370M103.667 370.333L104.333 370.667L103.667 370.333M108 370L108 371L111 371L108 370M112.667 370.333L113.333 370.667L112.667 370.333M145 370L146 371L145 370M158.667 370.333L159.333 370.667L158.667 370.333M207 370L208 371L207 370M213 370L214 371L213 370M345 370L346 371L345 370M426 370L427 371L426 370M147 371L148 372L147 371M155 371L156 372L155 371M162 371L163 372L162 371M215 371L216 372L215 371M220 371L221 372L220 371M347 371L348 372L347 371M352 371L353 372L352 371M150 372L150 373L153 373L150 372M332.333 372.667L332.667 373.333L332.333 372.667M200.333 373.667L200.667 374.333L200.333 373.667M297 373L298 374L297 373M78.6667 374.333L79.3333 374.667L78.6667 374.333M165 374L166 375L165 374M167 374L168 375L167 374M296 374L297 375L296 374M75 375L76 376L75 375M201 375L202 376L201 375M166 376L167 377L166 376M70.6667 379.333L71.3333 379.667L70.6667 379.333z"/>
</svg>
